# xmcd CD database file
#
# Track frame offsets:
#	151
#	24680
#	41345
#	66348
#	80683
#	103338
#	122493
#	144458
#	157935
#	183168
#	198533
#
# Disc length: 2903 seconds
#
# Revision: 0
# Processed by: cddbd v1.5PL3 Copyright (c) Steve Scherf et al.
# Submitted via: CDex 1.51
#
DISCID=940b550b
DTITLE=Kaj Stridell kaj La Kvinopo - JAZsperanto
DYEAR=2003
DGENRE=Jazz
TTITLE0=Moneroj el la Chielo
TTITLE1=Bill Bradley, venu hejmen
TTITLE2=Mi konfesas
TTITLE3=Mi' karulin' Karolin'
TTITLE4=Mi emas amon
TTITLE5=Ne miskondutas
TTITLE6=Chirkaubrakinda vi
TTITLE7=Marghie
TTITLE8=Shi estas amuza tiamaniere
TTITLE9=La chareto kun supra pasamento
TTITLE10=Kapti la okazon por amo
EXTD=YEAR: 2003
EXTT0=
EXTT1=
EXTT2=
EXTT3=
EXTT4=
EXTT5=
EXTT6=
EXTT7=
EXTT8=
EXTT9=
EXTT10=
PLAYORDER=
